<svg xmlns="http://www.w3.org/2000/svg" xmlns:xlink="http://www.w3.org/1999/xlink" width="1899" height="388" stroke="#000" stroke-linecap="round" stroke-linejoin="round" fill="#fff" fill-rule="evenodd"><g stroke="none" fill="#4285fd" fill-rule="nonzero"><path d="M241.4362 326.6049c9.4997 0 15.1989 7.5988 15.1989 15.1987 0 9.5008-7.6009 15.1998-15.1989 15.1998-9.4996 0-15.2021-7.5999-15.2021-15.1998s5.7025-15.1987 15.2021-15.1987m248.8905-96.8968c-9.4996 0-15.2021-7.5999-15.2021-15.1999s7.6012-15.1989 15.2021-15.1989c9.4998 0 15.199 7.5988 15.199 15.1989s-7.601 15.1999-15.199 15.1999m0-64.5971c-26.6003 0-49.4002 22.7977-49.4002 49.3972 0 5.6991 0 11.3992 1.9019 15.1999l-161.4948 85.4961c-9.4996-13.2999-24.6985-20.898-39.8974-20.898-18.9994 0-36.1002 11.3988-43.7011 26.5972L53.3412 244.9068c-15.1989-7.5988-26.5974-34.198-24.6987-56.9981 0-11.3993 5.6993-20.8991 11.3985-24.6995 3.8004-1.8986 9.4995-1.8986 13.3002 0h1.9019c37.9987 20.9002 165.2918 85.4983 169.0923 89.2978 7.6012 3.8004 13.3003 5.6991 26.6005-1.8986l260.2888-134.8955c3.8005-1.9007 7.6012-5.7014 7.6012-11.4005 0-7.5988-7.6012-11.3982-7.6012-11.3982-15.1989-7.6012-37.9987-17.1007-58.8967-28.5002L326.9335 5.5153c-20.9013-11.3988-36.1002-1.8989-39.9007 0l-5.6992 1.9016L24.8421 134.7114C9.6431 144.2108 2.0454 161.3106.1435 182.2086c-1.8986 34.2003 15.1989 70.2984 41.7993 83.5984l153.8937 79.7973c3.8004 24.6994 24.6984 41.798 47.4983 41.798 26.6005 0 49.3972-20.8991 49.3972-47.4995l169.0958-91.1953c9.4996 7.5999 18.9993 9.4986 30.3975 9.4986 26.6006 0 49.3974-22.7978 49.3974-49.397-3.7974-22.8001-24.6988-43.6981-51.296-43.6981m370.4855 129.195c-9.4997 9.4999-22.8001 18.9994-39.8973 24.6988s-36.1002 9.4995-56.9982 9.4995c-32.2996 0-58.9-9.4995-77.8994-30.401-18.9994-18.9993-30.3978-47.4951-30.3978-81.6966v-20.898c0-24.6984 3.8005-45.5965 13.3002-62.6972 9.4997-18.9994 20.8981-32.2998 36.097-41.7993s34.1981-15.1989 55.0993-15.1989c30.3978 0 55.0963 7.5977 72.1971 20.898s26.5971 34.2015 30.3978 62.6973h-56.9982c-1.8987-13.2969-5.6994-22.7967-13.2971-28.4958s-17.1007-9.503-28.4989-9.503c-15.1989 0-26.6006 5.7025-34.1983 18.9994s-11.4017 30.4011-13.3003 53.2008v15.1989c0 24.6986 3.7973 43.698 13.3003 55.0964 7.5977 11.4013 20.8981 18.9994 39.8973 18.9994 15.199 0 26.5972-3.8007 34.1983-9.4999v-37.9987h-41.7993v-39.8974h100.6962v98.7973zm34.1972 30.3979h56.9981V142.3113h-56.9981v182.3926zm-1.8987-229.8913c0-7.6009 3.8005-15.1987 9.4995-20.9012s13.3004-7.5977 22.8001-7.5977 17.0976 1.8987 22.7999 7.5977 9.4964 11.4017 9.4964 20.9012c0 7.6012-3.7973 15.1989-9.4964 20.8983s-13.3002 7.601-22.7999 7.601-17.1007-1.8987-22.8001-7.601c-7.6008-5.6994-9.4995-11.3984-9.4995-20.8983zm161.4947 1.9v45.5965h30.3979v39.9006h-30.3979v83.5955c0 7.601 1.8986 11.4013 3.7973 15.202 1.9018 1.8987 7.6012 3.7974 15.202 3.7974 5.6992 0 9.4999 0 13.3004-1.8987v39.8974c-9.503 3.8005-20.9012 5.7024-32.2997 5.7024-18.9994 0-34.2015-3.8005-43.6979-13.3004-9.503-9.4995-13.3002-22.7998-13.3002-41.7991v-91.1965h-22.7999v-39.9006h22.7999V96.7126h56.9981zm113.9939 123.4939v58.8999h37.9987c11.4017 0 18.9994-1.9018 24.6985-7.6008s9.4998-11.3986 9.4998-20.8981c0-20.9012-9.4998-30.401-30.3978-30.401h-41.7992zm0-37.9987h30.401c13.2969 0 22.7999-1.8987 28.4989-7.5977 5.6992-3.8005 7.5978-11.4017 7.5978-20.8981 0-9.503-3.8005-17.1007-9.4996-22.7999-5.699-3.8007-15.1989-7.6012-28.4989-7.6012h-28.4992v58.8969zm-58.8968 142.4954V79.6131h89.2978c32.2962 0 55.096 5.6992 72.1969 17.1007s24.6986 28.4958 24.6986 51.2959c0 13.3-3.8007 22.7999-9.4997 32.2994s-15.1989 15.1989-26.6004 18.9994c13.3 3.8005 22.7999 9.4998 30.4008 18.9994s9.4998 20.898 9.4998 34.1983c0 24.6984-7.6012 41.7991-22.7999 55.0995-15.1989 11.3982-37.9987 18.9994-68.3966 18.9994l-98.7973-1.9019z"/><use xlink:href="#B"/><use xlink:href="#B" x="195.6923"/><path d="M1793.6783 258.2062l-17.1007 15.1989v51.2988h-56.9982V66.3137h56.9982v136.7961l5.699-7.6009 43.698-53.1976h68.3997l-64.599 75.9974 68.3963 106.3952h-64.596z"/></g><defs ><path id="B" d="M1379.4928 235.4065c0 17.1007 1.8986 28.499 7.5977 37.9988 5.7025 7.601 13.3002 11.4017 22.8001 11.4017 20.9012 0 30.4007-15.2022 30.4007-47.4987v-5.699c0-32.2997-11.4015-49.4005-32.2996-49.4005-18.9994 0-28.4989 13.3004-30.3976 41.7993l1.8987 11.3984zm-56.9982-3.7972c0-18.9994 3.8005-34.2015 11.3984-49.4005 7.601-13.3 17.1005-24.6984 30.4009-32.2994s28.4991-11.3984 47.4985-11.3984c26.5971 0 49.397 7.5977 64.5959 24.6984s22.7999 39.8975 22.7999 68.3999v3.7972c0 28.499-7.601 51.299-24.6986 68.3999-15.1989 17.0972-37.9988 24.6984-64.599 24.6984s-47.4986-7.6012-62.6976-22.7999-24.6984-36.1001-24.6984-62.6974v-11.3982z"/></defs></svg>